# xmcd CD database file
#
# Track frame offsets:
#	150
#	12339
#	27315
#	40789
#	54554
#	69572
#	83033
#	94810
#	106283
#	119915
#	134478
#	145336
#	159788
#	175662
#	189220
#	202463
#	212651
#	243071
#
# Disc length: 3607 seconds
#
# Revision: 0
# Processed by: cddbd v1.5.2PL0 Copyright (c) Steve Scherf et al.
# Submitted via: CDex 1.70beta2
#
DISCID=fb0e1512
DTITLE=Teddy Wilson - Giants of Jazz Disc 2
DYEAR=1900
DGENRE=Jazz
TTITLE0=Coquette: Teddy Wilson and His Orchestra
TTITLE1=Things Are Looking Up: Teddy Wilson and His Orchestra 
TTITLE2=Don’t Blame Me: Teddy Wilson
TTITLE3=Don’t Be That Way: Teddy Wilson and His Orchestra
TTITLE4=The Man I Love: Teddy Wilson and His Orchestra 
TTITLE5=Jumpin’ on the Blacks and Whites: Teddy Wilson and His Orchestra
TTITLE6=Hallelujah: Teddy Wilson and His Orchestra
TTITLE7=Liza: Teddy Wilson and His Orchestra 
TTITLE8=71: Teddy Wilson and His Orchestra
TTITLE9=Smoke Gets in Your Eyes: Teddy Wilson
TTITLE10=I Know that You Know: Teddy Wilson with rhythm accompaniment 
TTITLE11=Body and Soul: Teddy Wilson 
TTITLE12=A Touch of Boogie: Teddy Wilson and His Orchestra 
TTITLE13=These Foolish Things: Teddy Wilson 
TTITLE14=If Dreams Come True: Teddy Wilson Sextet 
TTITLE15=Sunny Morning: Teddy Wilson
TTITLE16=Love Me or Leave Me: Lester Young Quartet 
TTITLE17=Blues in D Flat: Teddy Wilson and His All Stars
EXTD=
EXTT0=
EXTT1=
EXTT2=
EXTT3=
EXTT4=
EXTT5=
EXTT6=
EXTT7=
EXTT8=
EXTT9=
EXTT10=
EXTT11=
EXTT12=
EXTT13=
EXTT14=
EXTT15=
EXTT16=
EXTT17=
PLAYORDER=
